<?xml version="1.0" encoding="UTF-8" standalone="no"?>
<!DOCTYPE svg PUBLIC "-//W3C//DTD SVG 1.1//EN"
 "http://www.w3.org/Graphics/SVG/1.1/DTD/svg11.dtd">
<!-- Generated by graphviz version 12.1.0 (20240811.2233)
 -->
<!-- Pages: 1 -->
<svg width="1124pt" height="1204pt"
 viewBox="0.00 0.00 1124.00 1204.00" xmlns="http://www.w3.org/2000/svg" xmlns:xlink="http://www.w3.org/1999/xlink">
<g id="graph0" class="graph" transform="scale(1 1) rotate(0) translate(4 1200)">
<polygon fill="white" stroke="none" points="-4,4 -4,-1200 1120,-1200 1120,4 -4,4"/>
<g id="clust1" class="cluster">
<title>cluster_import</title>
<polygon fill="none" stroke="black" points="412,-464.5 412,-660 638,-660 638,-464.5 412,-464.5"/>
<text text-anchor="middle" x="525" y="-642.7" font-family="Times,serif" font-size="14.00">store::import</text>
</g>
<g id="clust2" class="cluster">
<title>cluster_fetch_layer</title>
<polygon fill="none" stroke="black" points="407,-679 407,-755.5 567,-755.5 567,-679 407,-679"/>
<text text-anchor="middle" x="487" y="-738.2" font-family="Times,serif" font-size="14.00">unencapsulate::fetch_layer</text>
</g>
<g id="clust3" class="cluster">
<title>cluster_get_blob</title>
<polygon fill="none" stroke="black" points="284,-774.5 284,-924 538,-924 538,-774.5 284,-774.5"/>
<text text-anchor="middle" x="411" y="-906.7" font-family="Times,serif" font-size="14.00">imageproxy::get_blob</text>
</g>
<g id="clust4" class="cluster">
<title>cluster_impl_request</title>
<polygon fill="none" stroke="black" points="371,-1111.5 371,-1188 531,-1188 531,-1111.5 371,-1111.5"/>
<text text-anchor="middle" x="451" y="-1170.7" font-family="Times,serif" font-size="14.00">imageproxy::impl_request</text>
</g>
<g id="clust5" class="cluster">
<title>cluster_finish_pipe</title>
<polygon fill="none" stroke="black" points="307,-943 307,-1092.5 456,-1092.5 456,-943 307,-943"/>
<text text-anchor="middle" x="381.5" y="-1075.2" font-family="Times,serif" font-size="14.00">imageproxy::finish_pipe</text>
</g>
<g id="clust6" class="cluster">
<title>cluster_write_tar</title>
<polygon fill="none" stroke="black" points="646,-81 646,-549 1104,-549 1104,-81 646,-81"/>
<text text-anchor="middle" x="875" y="-531.7" font-family="Times,serif" font-size="14.00">tar::write_tar</text>
</g>
<g id="clust7" class="cluster">
<title>cluster_write_tar_status_future</title>
<polygon fill="none" stroke="black" points="789,-242.5 789,-319 874,-319 874,-242.5 789,-242.5"/>
<text text-anchor="middle" x="831.5" y="-301.7" font-family="Times,serif" font-size="14.00">status Future</text>
</g>
<g id="clust8" class="cluster">
<title>cluster_write_tar_output_copier_future</title>
<polygon fill="none" stroke="black" points="840,-353.5 840,-430 1096,-430 1096,-353.5 840,-353.5"/>
<text text-anchor="middle" x="968" y="-412.7" font-family="Times,serif" font-size="14.00">output_copier Future</text>
</g>
<g id="clust9" class="cluster">
<title>cluster_filter_tar_async</title>
<polygon fill="none" stroke="black" points="8,-8 8,-430 638,-430 638,-8 8,-8"/>
<text text-anchor="middle" x="323" y="-412.7" font-family="Times,serif" font-size="14.00">tar::filter_tar_async</text>
</g>
<g id="clust10" class="cluster">
<title>cluster_tar_transformer</title>
<polygon fill="none" stroke="black" points="16,-81 16,-319 464,-319 464,-81 16,-81"/>
<text text-anchor="middle" x="240" y="-301.7" font-family="Times,serif" font-size="14.00">tar_transformer Future</text>
</g>
<g id="clust11" class="cluster">
<title>cluster_filter_tar_async_copier_future</title>
<polygon fill="none" stroke="black" points="472,-242.5 472,-319 630,-319 630,-242.5 472,-242.5"/>
<text text-anchor="middle" x="551" y="-301.7" font-family="Times,serif" font-size="14.00">copier Future</text>
</g>
<!-- import_blob -->
<g id="node1" class="node">
<title>import_blob</title>
<ellipse fill="none" stroke="black" cx="531" cy="-609.5" rx="27.3" ry="18"/>
<text text-anchor="middle" x="531" y="-604.45" font-family="Times,serif" font-size="14.00">blob</text>
</g>
<!-- write_tar_src -->
<g id="node13" class="node">
<title>write_tar_src</title>
<ellipse fill="none" stroke="black" cx="681" cy="-498.5" rx="27" ry="18"/>
<text text-anchor="middle" x="681" y="-493.45" font-family="Times,serif" font-size="14.00">src</text>
</g>
<!-- import_blob&#45;&gt;write_tar_src -->
<g id="edge12" class="edge">
<title>import_blob&#45;&gt;write_tar_src</title>
<path fill="none" stroke="black" d="M552.07,-597.85C556.91,-595.6 562.08,-593.35 567,-591.5 594.26,-581.25 606.35,-590.49 630,-573.5 646.84,-561.4 659.94,-541.93 668.64,-525.99"/>
<polygon fill="black" stroke="black" points="671.56,-527.98 673.03,-517.49 665.34,-524.77 671.56,-527.98"/>
</g>
<!-- import_driver -->
<g id="node2" class="node">
<title>import_driver</title>
<ellipse fill="none" stroke="black" cx="453" cy="-609.5" rx="32.93" ry="18"/>
<text text-anchor="middle" x="453" y="-604.45" font-family="Times,serif" font-size="14.00">driver</text>
</g>
<!-- import_r2 -->
<g id="node4" class="node">
<title>import_r2</title>
<polygon fill="none" stroke="black" points="531,-491.04 531,-505.96 515.18,-516.5 492.82,-516.5 477,-505.96 477,-491.04 492.82,-480.5 515.18,-480.5 531,-491.04"/>
<polygon fill="none" stroke="black" points="535,-488.9 535,-508.1 516.39,-520.5 491.61,-520.5 473,-508.1 473,-488.9 491.61,-476.5 516.39,-476.5 535,-488.9"/>
<polygon fill="none" stroke="black" points="539,-486.76 539,-510.24 517.61,-524.5 490.39,-524.5 469,-510.24 469,-486.76 490.39,-472.5 517.61,-472.5 539,-486.76"/>
<text text-anchor="middle" x="504" y="-493.45" font-family="Times,serif" font-size="14.00">r</text>
</g>
<!-- import_driver&#45;&gt;import_r2 -->
<g id="edge2" class="edge">
<title>import_driver&#45;&gt;import_r2</title>
<path fill="none" stroke="black" d="M460.43,-591.75C464.94,-581.66 470.85,-568.56 476.25,-557 479.56,-549.91 483.15,-542.37 486.62,-535.15"/>
<polygon fill="black" stroke="black" points="489.71,-536.8 490.91,-526.27 483.41,-533.76 489.71,-536.8"/>
<text text-anchor="middle" x="503.62" y="-560.2" font-family="Times,serif" font-size="14.00">join_fetch</text>
</g>
<!-- import_r -->
<g id="node3" class="node">
<title>import_r</title>
<ellipse fill="none" stroke="black" cx="603" cy="-609.5" rx="27" ry="18"/>
<text text-anchor="middle" x="603" y="-604.45" font-family="Times,serif" font-size="14.00">r</text>
</g>
<!-- import_r&#45;&gt;import_r2 -->
<g id="edge1" class="edge">
<title>import_r&#45;&gt;import_r2</title>
<path fill="none" stroke="black" d="M589.65,-593.8C574.71,-577.35 550.12,-550.28 531.11,-529.35"/>
<polygon fill="black" stroke="black" points="533.94,-527.26 524.63,-522.21 528.76,-531.97 533.94,-527.26"/>
<text text-anchor="middle" x="598.35" y="-560.2" font-family="Times,serif" font-size="14.00">join_fetch</text>
</g>
<!-- fetch_layer_blob -->
<g id="node5" class="node">
<title>fetch_layer_blob</title>
<ellipse fill="none" stroke="black" cx="445" cy="-705" rx="27.3" ry="18"/>
<text text-anchor="middle" x="445" y="-699.95" font-family="Times,serif" font-size="14.00">blob</text>
</g>
<!-- fetch_layer_blob&#45;&gt;import_blob -->
<g id="edge3" class="edge">
<title>fetch_layer_blob&#45;&gt;import_blob</title>
<path fill="none" stroke="black" d="M462.06,-690.59C472.14,-682.28 484.88,-671.11 495,-660 501.82,-652.52 508.55,-643.75 514.31,-635.69"/>
<polygon fill="black" stroke="black" points="517.11,-637.79 519.94,-627.58 511.36,-633.8 517.11,-637.79"/>
</g>
<!-- fetch_layer_driver -->
<g id="node6" class="node">
<title>fetch_layer_driver</title>
<ellipse fill="none" stroke="black" cx="524" cy="-705" rx="32.93" ry="18"/>
<text text-anchor="middle" x="524" y="-699.95" font-family="Times,serif" font-size="14.00">driver</text>
</g>
<!-- fetch_layer_driver&#45;&gt;import_driver -->
<g id="edge4" class="edge">
<title>fetch_layer_driver&#45;&gt;import_driver</title>
<path fill="none" stroke="black" d="M511.96,-688.14C500.94,-673.63 484.47,-651.94 471.74,-635.17"/>
<polygon fill="black" stroke="black" points="474.85,-633.49 466.02,-627.64 469.28,-637.72 474.85,-633.49"/>
</g>
<!-- get_blob_fd -->
<g id="node7" class="node">
<title>get_blob_fd</title>
<ellipse fill="none" stroke="black" cx="476" cy="-873.5" rx="31.9" ry="18"/>
<text text-anchor="middle" x="476" y="-868.45" font-family="Times,serif" font-size="14.00">(_,fd)</text>
</g>
<!-- get_blob_fd2 -->
<g id="node8" class="node">
<title>get_blob_fd2</title>
<ellipse fill="none" stroke="black" cx="411" cy="-800.5" rx="119.42" ry="18"/>
<text text-anchor="middle" x="411" y="-795.45" font-family="Times,serif" font-size="14.00">tokio::File(tokio::BufReader)</text>
</g>
<!-- get_blob_fd&#45;&gt;get_blob_fd2 -->
<g id="edge7" class="edge">
<title>get_blob_fd&#45;&gt;get_blob_fd2</title>
<path fill="none" stroke="black" d="M461.9,-857.09C453.87,-848.32 443.61,-837.12 434.4,-827.06"/>
<polygon fill="black" stroke="black" points="437.03,-824.75 427.69,-819.73 431.86,-829.47 437.03,-824.75"/>
</g>
<!-- get_blob_fd2&#45;&gt;fetch_layer_blob -->
<g id="edge5" class="edge">
<title>get_blob_fd2&#45;&gt;fetch_layer_blob</title>
<path fill="none" stroke="black" d="M417.24,-782.35C422.2,-768.69 429.25,-749.3 435.01,-733.48"/>
<polygon fill="black" stroke="black" points="438.27,-734.74 438.4,-724.15 431.69,-732.35 438.27,-734.74"/>
</g>
<!-- get_blob_finish -->
<g id="node9" class="node">
<title>get_blob_finish</title>
<ellipse fill="none" stroke="black" cx="394" cy="-873.5" rx="31.9" ry="18"/>
<text text-anchor="middle" x="394" y="-868.45" font-family="Times,serif" font-size="14.00">finish</text>
</g>
<!-- get_blob_finish&#45;&gt;fetch_layer_driver -->
<g id="edge6" class="edge">
<title>get_blob_finish&#45;&gt;fetch_layer_driver</title>
<path fill="none" stroke="black" d="M419.07,-861.87C424.31,-859.71 429.82,-857.49 435,-855.5 480.79,-837.88 510.71,-858.59 539,-818.5 556.63,-793.51 547.37,-757.46 537.34,-732.96"/>
<polygon fill="black" stroke="black" points="540.62,-731.71 533.38,-723.97 534.21,-734.54 540.62,-731.71"/>
</g>
<!-- request_req -->
<g id="node10" class="node">
<title>request_req</title>
<ellipse fill="none" stroke="black" cx="451" cy="-1137.5" rx="27" ry="18"/>
<text text-anchor="middle" x="451" y="-1132.45" font-family="Times,serif" font-size="14.00">req</text>
</g>
<!-- request_req&#45;&gt;get_blob_fd -->
<g id="edge8" class="edge">
<title>request_req&#45;&gt;get_blob_fd</title>
<path fill="none" stroke="black" d="M455.02,-1119.45C456.8,-1111.33 458.76,-1101.46 460,-1092.5 469.33,-1025.07 473.44,-945.11 475.07,-903.28"/>
<polygon fill="black" stroke="black" points="478.56,-903.45 475.43,-893.33 471.57,-903.2 478.56,-903.45"/>
</g>
<!-- finish_pipe_r_fd -->
<g id="node11" class="node">
<title>finish_pipe_r_fd</title>
<ellipse fill="none" stroke="black" cx="405" cy="-1042" rx="29.86" ry="18"/>
<text text-anchor="middle" x="405" y="-1036.95" font-family="Times,serif" font-size="14.00">(r,fd)</text>
</g>
<!-- request_req&#45;&gt;finish_pipe_r_fd -->
<g id="edge9" class="edge">
<title>request_req&#45;&gt;finish_pipe_r_fd</title>
<path fill="none" stroke="black" d="M442.99,-1120.21C436.15,-1106.31 426.17,-1086.03 418.16,-1069.75"/>
<polygon fill="black" stroke="black" points="421.45,-1068.52 413.9,-1061.09 415.17,-1071.61 421.45,-1068.52"/>
</g>
<!-- finish_pipe_r -->
<g id="node12" class="node">
<title>finish_pipe_r</title>
<ellipse fill="none" stroke="black" cx="398" cy="-969" rx="27" ry="18"/>
<text text-anchor="middle" x="398" y="-963.95" font-family="Times,serif" font-size="14.00">r</text>
</g>
<!-- finish_pipe_r_fd&#45;&gt;finish_pipe_r -->
<g id="edge10" class="edge">
<title>finish_pipe_r_fd&#45;&gt;finish_pipe_r</title>
<path fill="none" stroke="black" d="M403.31,-1023.81C402.55,-1016.14 401.64,-1006.89 400.78,-998.24"/>
<polygon fill="black" stroke="black" points="404.29,-998.14 399.83,-988.54 397.33,-998.83 404.29,-998.14"/>
</g>
<!-- finish_pipe_r&#45;&gt;get_blob_finish -->
<g id="edge11" class="edge">
<title>finish_pipe_r&#45;&gt;get_blob_finish</title>
<path fill="none" stroke="black" d="M397.27,-950.85C396.69,-937.49 395.89,-918.65 395.22,-903.03"/>
<polygon fill="black" stroke="black" points="398.73,-903.21 394.81,-893.37 391.74,-903.51 398.73,-903.21"/>
</g>
<!-- filter_tar_async_src -->
<g id="node31" class="node">
<title>filter_tar_async_src</title>
<ellipse fill="none" stroke="black" cx="433" cy="-379.5" rx="27" ry="18"/>
<text text-anchor="middle" x="433" y="-374.45" font-family="Times,serif" font-size="14.00">src</text>
</g>
<!-- write_tar_src&#45;&gt;filter_tar_async_src -->
<g id="edge25" class="edge">
<title>write_tar_src&#45;&gt;filter_tar_async_src</title>
<path fill="none" stroke="black" d="M667.08,-482.71C660.14,-476.18 651.26,-468.98 642,-464.5 572.21,-430.73 536.79,-471.02 471,-430 461.65,-424.17 453.73,-415.16 447.58,-406.41"/>
<polygon fill="black" stroke="black" points="450.59,-404.62 442.23,-398.11 444.7,-408.41 450.59,-404.62"/>
</g>
<!-- write_tar_filtered_result -->
<g id="node14" class="node">
<title>write_tar_filtered_result</title>
<ellipse fill="none" stroke="black" cx="717" cy="-268.5" rx="62.61" ry="18"/>
<text text-anchor="middle" x="717" y="-263.45" font-family="Times,serif" font-size="14.00">filtered_result</text>
</g>
<!-- write_tar_filtered_result2 -->
<g id="node22" class="node">
<title>write_tar_filtered_result2</title>
<ellipse fill="none" stroke="black" cx="806" cy="-180" rx="133.24" ry="18"/>
<text text-anchor="middle" x="806" y="-174.95" font-family="Times,serif" font-size="14.00">filtered_result (in try_join block)</text>
</g>
<!-- write_tar_filtered_result&#45;&gt;write_tar_filtered_result2 -->
<g id="edge19" class="edge">
<title>write_tar_filtered_result&#45;&gt;write_tar_filtered_result2</title>
<path fill="none" stroke="black" d="M716.67,-250.06C717.33,-239.2 719.85,-225.54 727.5,-216 731.63,-210.86 736.67,-206.44 742.19,-202.67"/>
<polygon fill="black" stroke="black" points="743.77,-205.8 750.55,-197.67 740.17,-199.8 743.77,-205.8"/>
<text text-anchor="middle" x="768.75" y="-219.2" font-family="Times,serif" font-size="14.00">tokio::try_join!</text>
</g>
<!-- write_tar_output_copier -->
<g id="node15" class="node">
<title>write_tar_output_copier</title>
<ellipse fill="none" stroke="black" cx="1019" cy="-180" rx="62.1" ry="18"/>
<text text-anchor="middle" x="1019" y="-174.95" font-family="Times,serif" font-size="14.00">output_copier</text>
</g>
<!-- write_tar_output_copier_await -->
<g id="node23" class="node">
<title>write_tar_output_copier_await</title>
<ellipse fill="none" stroke="black" cx="1012" cy="-107" rx="84.11" ry="18"/>
<text text-anchor="middle" x="1012" y="-101.95" font-family="Times,serif" font-size="14.00">output_copier.await</text>
</g>
<!-- write_tar_output_copier&#45;&gt;write_tar_output_copier_await -->
<g id="edge21" class="edge">
<title>write_tar_output_copier&#45;&gt;write_tar_output_copier_await</title>
<path fill="none" stroke="black" d="M1017.31,-161.81C1016.55,-154.14 1015.64,-144.89 1014.78,-136.24"/>
<polygon fill="black" stroke="black" points="1018.29,-136.14 1013.83,-126.54 1011.33,-136.83 1018.29,-136.14"/>
</g>
<!-- write_tar_ostree_commit_process -->
<g id="node16" class="node">
<title>write_tar_ostree_commit_process</title>
<ellipse fill="none" stroke="black" cx="850" cy="-498.5" rx="106.11" ry="18"/>
<text text-anchor="middle" x="850" y="-493.45" font-family="Times,serif" font-size="14.00">&lt;ostree commit process&gt;</text>
</g>
<!-- write_tar_child_stdin -->
<g id="node17" class="node">
<title>write_tar_child_stdin</title>
<ellipse fill="none" stroke="black" cx="706" cy="-379.5" rx="51.86" ry="18"/>
<text text-anchor="middle" x="706" y="-374.45" font-family="Times,serif" font-size="14.00">child_stdin</text>
</g>
<!-- write_tar_ostree_commit_process&#45;&gt;write_tar_child_stdin -->
<g id="edge13" class="edge">
<title>write_tar_ostree_commit_process&#45;&gt;write_tar_child_stdin</title>
<path fill="none" stroke="black" d="M829.06,-480.49C804.11,-460.22 762.31,-426.25 734.45,-403.61"/>
<polygon fill="black" stroke="black" points="736.72,-400.95 726.75,-397.36 732.31,-406.38 736.72,-400.95"/>
</g>
<!-- write_tar_r -->
<g id="node19" class="node">
<title>write_tar_r</title>
<ellipse fill="none" stroke="black" cx="803" cy="-379.5" rx="27" ry="18"/>
<text text-anchor="middle" x="803" y="-374.45" font-family="Times,serif" font-size="14.00">r</text>
</g>
<!-- write_tar_ostree_commit_process&#45;&gt;write_tar_r -->
<g id="edge14" class="edge">
<title>write_tar_ostree_commit_process&#45;&gt;write_tar_r</title>
<path fill="none" stroke="black" d="M843.06,-480.24C835.38,-461.1 822.87,-429.97 813.88,-407.58"/>
<polygon fill="black" stroke="black" points="817.2,-406.46 810.22,-398.48 810.7,-409.07 817.2,-406.46"/>
<text text-anchor="middle" x="853.84" y="-441.2" font-family="Times,serif" font-size="14.00">spawn()</text>
</g>
<!-- write_tar_output_copier_future_child_stdout -->
<g id="node20" class="node">
<title>write_tar_output_copier_future_child_stdout</title>
<ellipse fill="none" stroke="black" cx="904" cy="-379.5" rx="56.47" ry="18"/>
<text text-anchor="middle" x="904" y="-374.45" font-family="Times,serif" font-size="14.00">child_stdout</text>
</g>
<!-- write_tar_ostree_commit_process&#45;&gt;write_tar_output_copier_future_child_stdout -->
<g id="edge16" class="edge">
<title>write_tar_ostree_commit_process&#45;&gt;write_tar_output_copier_future_child_stdout</title>
<path fill="none" stroke="black" d="M863.79,-480.24C869.38,-472.67 875.54,-463.47 880,-454.5 887.19,-440.04 892.9,-422.95 896.94,-408.84"/>
<polygon fill="black" stroke="black" points="900.29,-409.84 899.54,-399.27 893.54,-408 900.29,-409.84"/>
</g>
<!-- write_tar_output_copier_future_child_stderr -->
<g id="node21" class="node">
<title>write_tar_output_copier_future_child_stderr</title>
<ellipse fill="none" stroke="black" cx="1033" cy="-379.5" rx="54.93" ry="18"/>
<text text-anchor="middle" x="1033" y="-374.45" font-family="Times,serif" font-size="14.00">child_stderr</text>
</g>
<!-- write_tar_ostree_commit_process&#45;&gt;write_tar_output_copier_future_child_stderr -->
<g id="edge17" class="edge">
<title>write_tar_ostree_commit_process&#45;&gt;write_tar_output_copier_future_child_stderr</title>
<path fill="none" stroke="black" d="M882.05,-480.93C906.43,-467.94 940.53,-448.95 969,-430 981.15,-421.91 993.98,-412.24 1004.94,-403.59"/>
<polygon fill="black" stroke="black" points="1006.84,-406.56 1012.46,-397.58 1002.47,-401.09 1006.84,-406.56"/>
</g>
<!-- filter_tar_async_dest -->
<g id="node32" class="node">
<title>filter_tar_async_dest</title>
<ellipse fill="none" stroke="black" cx="507" cy="-379.5" rx="27" ry="18"/>
<text text-anchor="middle" x="507" y="-374.45" font-family="Times,serif" font-size="14.00">dest</text>
</g>
<!-- write_tar_child_stdin&#45;&gt;filter_tar_async_dest -->
<g id="edge26" class="edge">
<title>write_tar_child_stdin&#45;&gt;filter_tar_async_dest</title>
<path fill="none" stroke="black" d="M693.28,-397.3C680.28,-413.8 658.43,-437.27 633,-447.25 599.49,-460.4 583.73,-464.26 552,-447.25 536.28,-438.82 525.12,-422.21 517.84,-407.55"/>
<polygon fill="black" stroke="black" points="521.16,-406.4 513.84,-398.74 514.79,-409.29 521.16,-406.4"/>
</g>
<!-- write_tar_status_future_r -->
<g id="node18" class="node">
<title>write_tar_status_future_r</title>
<ellipse fill="none" stroke="black" cx="825" cy="-268.5" rx="27" ry="18"/>
<text text-anchor="middle" x="825" y="-263.45" font-family="Times,serif" font-size="14.00">r</text>
</g>
<!-- write_tar_status_future_r&#45;&gt;write_tar_filtered_result2 -->
<g id="edge18" class="edge">
<title>write_tar_status_future_r&#45;&gt;write_tar_filtered_result2</title>
<path fill="none" stroke="black" d="M821.25,-250.41C818.69,-238.76 815.24,-223.05 812.26,-209.52"/>
<polygon fill="black" stroke="black" points="815.7,-208.84 810.14,-199.83 808.86,-210.35 815.7,-208.84"/>
<text text-anchor="middle" x="858.45" y="-219.2" font-family="Times,serif" font-size="14.00">tokio::try_join!</text>
</g>
<!-- write_tar_r&#45;&gt;write_tar_status_future_r -->
<g id="edge15" class="edge">
<title>write_tar_r&#45;&gt;write_tar_status_future_r</title>
<path fill="none" stroke="black" d="M806.44,-361.47C809.87,-344.45 815.21,-317.99 819.29,-297.81"/>
<polygon fill="black" stroke="black" points="822.67,-298.75 821.21,-288.25 815.81,-297.36 822.67,-298.75"/>
</g>
<!-- write_tar_filtered_result2&#45;&gt;write_tar_output_copier_await -->
<g id="edge20" class="edge">
<title>write_tar_filtered_result2&#45;&gt;write_tar_output_copier_await</title>
<path fill="none" stroke="black" d="M853.26,-162.71C884.53,-151.93 925.61,-137.78 958.14,-126.56"/>
<polygon fill="black" stroke="black" points="959.08,-129.94 967.39,-123.38 956.79,-123.33 959.08,-129.94"/>
</g>
<!-- write_tar_output_copier_await&#45;&gt;import_r -->
<g id="edge37" class="edge">
<title>write_tar_output_copier_await&#45;&gt;import_r</title>
<path fill="none" stroke="black" d="M1076.24,-549C980.21,-600.57 736.56,-607.73 641.66,-608.51"/>
<polygon fill="black" stroke="black" points="641.71,-605.01 631.73,-608.57 641.75,-612.01 641.71,-605.01"/>
</g>
<!-- tar_transformer_src -->
<g id="node24" class="node">
<title>tar_transformer_src</title>
<ellipse fill="none" stroke="black" cx="426" cy="-268.5" rx="27" ry="18"/>
<text text-anchor="middle" x="426" y="-263.45" font-family="Times,serif" font-size="14.00">src</text>
</g>
<!-- tar_transformer_src2 -->
<g id="node25" class="node">
<title>tar_transformer_src2</title>
<ellipse fill="none" stroke="black" cx="361" cy="-180" rx="94.86" ry="18"/>
<text text-anchor="middle" x="361" y="-174.95" font-family="Times,serif" font-size="14.00">src: SyncIoBridge(src)</text>
</g>
<!-- tar_transformer_src&#45;&gt;tar_transformer_src2 -->
<g id="edge22" class="edge">
<title>tar_transformer_src&#45;&gt;tar_transformer_src2</title>
<path fill="none" stroke="black" d="M408.22,-254.53C400.71,-248.44 392.27,-240.72 386,-232.5 380.53,-225.33 375.79,-216.77 371.96,-208.71"/>
<polygon fill="black" stroke="black" points="375.17,-207.32 367.92,-199.59 368.77,-210.15 375.17,-207.32"/>
</g>
<!-- filter_tar_async_r -->
<g id="node35" class="node">
<title>filter_tar_async_r</title>
<ellipse fill="none" stroke="black" cx="510" cy="-180" rx="27" ry="18"/>
<text text-anchor="middle" x="510" y="-174.95" font-family="Times,serif" font-size="14.00">r</text>
</g>
<!-- tar_transformer_src&#45;&gt;filter_tar_async_r -->
<g id="edge31" class="edge">
<title>tar_transformer_src&#45;&gt;filter_tar_async_r</title>
<path fill="none" stroke="black" d="M464,-201.99C468.32,-199.69 472.92,-197.41 477.48,-195.23"/>
<polygon fill="black" stroke="black" points="478.75,-198.5 486.36,-191.13 475.82,-192.15 478.75,-198.5"/>
<text text-anchor="middle" x="473.62" y="-219.2" font-family="Times,serif" font-size="14.00">tokio::join!</text>
</g>
<!-- tar_transformer_src3 -->
<g id="node26" class="node">
<title>tar_transformer_src3</title>
<ellipse fill="none" stroke="black" cx="361" cy="-107" rx="95.37" ry="18"/>
<text text-anchor="middle" x="361" y="-101.95" font-family="Times,serif" font-size="14.00">src: decompressor(src)</text>
</g>
<!-- tar_transformer_src2&#45;&gt;tar_transformer_src3 -->
<g id="edge23" class="edge">
<title>tar_transformer_src2&#45;&gt;tar_transformer_src3</title>
<path fill="none" stroke="black" d="M361,-161.81C361,-154.23 361,-145.1 361,-136.54"/>
<polygon fill="black" stroke="black" points="364.5,-136.54 361,-126.54 357.5,-136.54 364.5,-136.54"/>
</g>
<!-- tar_transformer_tx_buf -->
<g id="node27" class="node">
<title>tar_transformer_tx_buf</title>
<ellipse fill="none" stroke="black" cx="136" cy="-268.5" rx="34.97" ry="18"/>
<text text-anchor="middle" x="136" y="-263.45" font-family="Times,serif" font-size="14.00">tx_buf</text>
</g>
<!-- tar_transformer_dest -->
<g id="node28" class="node">
<title>tar_transformer_dest</title>
<ellipse fill="none" stroke="black" cx="136" cy="-180" rx="112.26" ry="18"/>
<text text-anchor="middle" x="136" y="-174.95" font-family="Times,serif" font-size="14.00">dest: SyncIoBridge(tx_buf)</text>
</g>
<!-- tar_transformer_tx_buf&#45;&gt;tar_transformer_dest -->
<g id="edge24" class="edge">
<title>tar_transformer_tx_buf&#45;&gt;tar_transformer_dest</title>
<path fill="none" stroke="black" d="M136,-250.41C136,-238.76 136,-223.05 136,-209.52"/>
<polygon fill="black" stroke="black" points="139.5,-209.86 136,-199.86 132.5,-209.86 139.5,-209.86"/>
</g>
<!-- filter_tar_async_copier_future_rx_buf -->
<g id="node29" class="node">
<title>filter_tar_async_copier_future_rx_buf</title>
<ellipse fill="none" stroke="black" cx="587" cy="-268.5" rx="35.49" ry="18"/>
<text text-anchor="middle" x="587" y="-263.45" font-family="Times,serif" font-size="14.00">rx_buf</text>
</g>
<!-- filter_tar_async_copier_future_dest -->
<g id="node30" class="node">
<title>filter_tar_async_copier_future_dest</title>
<ellipse fill="none" stroke="black" cx="507" cy="-268.5" rx="27" ry="18"/>
<text text-anchor="middle" x="507" y="-263.45" font-family="Times,serif" font-size="14.00">dest</text>
</g>
<!-- filter_tar_async_copier_future_dest&#45;&gt;filter_tar_async_r -->
<g id="edge32" class="edge">
<title>filter_tar_async_copier_future_dest&#45;&gt;filter_tar_async_r</title>
<path fill="none" stroke="black" d="M507.87,-242.5C508.22,-232.19 508.64,-220.17 509.01,-209.52"/>
<polygon fill="black" stroke="black" points="512.5,-209.98 509.35,-199.86 505.5,-209.74 512.5,-209.98"/>
<text text-anchor="middle" x="539.14" y="-219.2" font-family="Times,serif" font-size="14.00">tokio::join!</text>
</g>
<!-- filter_tar_async_src&#45;&gt;tar_transformer_src -->
<g id="edge27" class="edge">
<title>filter_tar_async_src&#45;&gt;tar_transformer_src</title>
<path fill="none" stroke="black" d="M431.91,-361.47C430.82,-344.53 429.13,-318.23 427.84,-298.09"/>
<polygon fill="black" stroke="black" points="431.34,-298.04 427.21,-288.28 424.35,-298.49 431.34,-298.04"/>
</g>
<!-- filter_tar_async_dest&#45;&gt;filter_tar_async_copier_future_dest -->
<g id="edge30" class="edge">
<title>filter_tar_async_dest&#45;&gt;filter_tar_async_copier_future_dest</title>
<path fill="none" stroke="black" d="M507,-361.47C507,-344.53 507,-318.23 507,-298.09"/>
<polygon fill="black" stroke="black" points="510.5,-298.28 507,-288.28 503.5,-298.28 510.5,-298.28"/>
<text text-anchor="middle" x="523.5" y="-330.2" font-family="Times,serif" font-size="14.00">&amp;mut</text>
</g>
<!-- filter_tar_async_tx_buf -->
<g id="node33" class="node">
<title>filter_tar_async_tx_buf</title>
<ellipse fill="none" stroke="black" cx="136" cy="-379.5" rx="34.97" ry="18"/>
<text text-anchor="middle" x="136" y="-374.45" font-family="Times,serif" font-size="14.00">tx_buf</text>
</g>
<!-- filter_tar_async_tx_buf&#45;&gt;tar_transformer_tx_buf -->
<g id="edge28" class="edge">
<title>filter_tar_async_tx_buf&#45;&gt;tar_transformer_tx_buf</title>
<path fill="none" stroke="black" d="M136,-361.47C136,-344.53 136,-318.23 136,-298.09"/>
<polygon fill="black" stroke="black" points="139.5,-298.28 136,-288.28 132.5,-298.28 139.5,-298.28"/>
</g>
<!-- filter_tar_async_rx_buf -->
<g id="node34" class="node">
<title>filter_tar_async_rx_buf</title>
<ellipse fill="none" stroke="black" cx="587" cy="-379.5" rx="35.49" ry="18"/>
<text text-anchor="middle" x="587" y="-374.45" font-family="Times,serif" font-size="14.00">rx_buf</text>
</g>
<!-- filter_tar_async_rx_buf&#45;&gt;filter_tar_async_copier_future_rx_buf -->
<g id="edge29" class="edge">
<title>filter_tar_async_rx_buf&#45;&gt;filter_tar_async_copier_future_rx_buf</title>
<path fill="none" stroke="black" d="M587,-361.47C587,-344.53 587,-318.23 587,-298.09"/>
<polygon fill="black" stroke="black" points="590.5,-298.28 587,-288.28 583.5,-298.28 590.5,-298.28"/>
<text text-anchor="middle" x="603.5" y="-330.2" font-family="Times,serif" font-size="14.00">&amp;mut</text>
</g>
<!-- filter_tar_async_r2 -->
<g id="node36" class="node">
<title>filter_tar_async_r2</title>
<ellipse fill="none" stroke="black" cx="589" cy="-107" rx="27" ry="18"/>
<text text-anchor="middle" x="589" y="-101.95" font-family="Times,serif" font-size="14.00">r</text>
</g>
<!-- filter_tar_async_r&#45;&gt;filter_tar_async_r2 -->
<g id="edge33" class="edge">
<title>filter_tar_async_r&#45;&gt;filter_tar_async_r2</title>
<path fill="none" stroke="black" d="M525.61,-164.97C536.86,-154.86 552.26,-141.02 565.06,-129.52"/>
<polygon fill="black" stroke="black" points="567.2,-132.3 572.3,-123.01 562.52,-127.09 567.2,-132.3"/>
</g>
<!-- filter_tar_async_src2 -->
<g id="node37" class="node">
<title>filter_tar_async_src2</title>
<ellipse fill="none" stroke="black" cx="510" cy="-107" rx="27" ry="18"/>
<text text-anchor="middle" x="510" y="-101.95" font-family="Times,serif" font-size="14.00">src</text>
</g>
<!-- filter_tar_async_r&#45;&gt;filter_tar_async_src2 -->
<g id="edge34" class="edge">
<title>filter_tar_async_r&#45;&gt;filter_tar_async_src2</title>
<path fill="none" stroke="black" d="M510,-161.81C510,-154.23 510,-145.1 510,-136.54"/>
<polygon fill="black" stroke="black" points="513.5,-136.54 510,-126.54 506.5,-136.54 513.5,-136.54"/>
</g>
<!-- filter_tar_async_r2&#45;&gt;write_tar_filtered_result -->
<g id="edge35" class="edge">
<title>filter_tar_async_r2&#45;&gt;write_tar_filtered_result</title>
<path fill="none" stroke="black" d="M601.15,-123.14C623.09,-150.48 669.56,-208.38 696.5,-241.95"/>
<polygon fill="black" stroke="black" points="693.61,-243.94 702.6,-249.55 699.07,-239.56 693.61,-243.94"/>
</g>
<!-- filter_tar_async_drop_src -->
<g id="node38" class="node">
<title>filter_tar_async_drop_src</title>
<ellipse fill="none" stroke="black" cx="510" cy="-34" rx="44.7" ry="18"/>
<text text-anchor="middle" x="510" y="-28.95" font-family="Times,serif" font-size="14.00">drop(src)</text>
</g>
<!-- filter_tar_async_src2&#45;&gt;filter_tar_async_drop_src -->
<g id="edge36" class="edge">
<title>filter_tar_async_src2&#45;&gt;filter_tar_async_drop_src</title>
<path fill="none" stroke="black" d="M510,-88.81C510,-81.23 510,-72.1 510,-63.54"/>
<polygon fill="black" stroke="black" points="513.5,-63.54 510,-53.54 506.5,-63.54 513.5,-63.54"/>
</g>
</g>
</svg>
